<?xml version="1.0" encoding="utf-8"?>
<!-- Generator: Adobe Illustrator 26.1.0, SVG Export Plug-In . SVG Version: 6.00 Build 0)  -->
<svg version="1.1" id="Layer_1" xmlns="http://www.w3.org/2000/svg" xmlns:xlink="http://www.w3.org/1999/xlink" x="0px" y="0px"
	 viewBox="0 0 240.45 211.09" style="enable-background:new 0 0 240.45 211.09;" xml:space="preserve">
<style type="text/css">
	.st0{fill:#52CA52;}
	.st1{fill:#787878;}
	.st2{fill:#FFFFFF;}
</style>
<g>
	<g>
		<g>
			<g>
				<path class="st0" d="M24.85,51.04l6.83,2.81l-5.43-5c-0.6-0.55-1.56-0.42-2,0.26C23.81,49.81,24.1,50.72,24.85,51.04z"/>
			</g>
			<g>
				<path class="st0" d="M34.03,44.89l2.85,6.82l-0.31-7.37c-0.04-0.82-0.8-1.41-1.6-1.24C34.16,43.28,33.72,44.14,34.03,44.89z"/>
			</g>
			<g>
				<path class="st0" d="M45.09,45.24l-2.8,6.81l4.99-5.43c0.56-0.6,0.43-1.55-0.26-2C46.34,44.18,45.41,44.47,45.09,45.24z"/>
			</g>
		</g>
		<g>
			<path class="st1" d="M183.89,9.5l-49.55-9.42c-2.6-0.49-5.12,1.2-5.65,3.8l-6.45,31.78L65.81,48.15
				c-5.09-13.32-19.32-21.29-33.65-18.12C17.83,33.2,8.29,46.44,9.31,60.66l-0.08,0.02c-4.15,0.92-7.39,3.88-8.67,7.94
				c-1.28,4.05-0.32,8.34,2.54,11.48L104,190.27c1.65,1.8,3.74,2.98,6,3.51l2.33,13.32c0.46,2.62,2.95,4.37,5.57,3.91l0.7-0.13
				c2.61-0.45,4.36-2.94,3.9-5.56l-2.43-13.86c1.76-1.42,3.09-3.33,3.81-5.59l13.56-42.97H132c-0.61,0-1.19-0.12-1.75-0.3
				c-0.55,0.18-1.12,0.3-1.73,0.3h-1.24l-12.64,40.05c-0.31,0.99-1.09,1.3-1.53,1.39c-0.43,0.1-1.26,0.15-1.96-0.62L10.24,73.55
				c-0.7-0.76-0.58-1.59-0.44-2.02c0.13-0.42,0.51-1.17,1.53-1.4l108.79-24.09l-4.82,23.82c-0.26,1.27,0.88,2.38,2.15,2.09
				l6.55-1.49c0.68-0.16,1.21-0.7,1.35-1.39l5.12-25.31l26.72-5.92c1.02-0.23,1.67,0.29,1.97,0.62c0.3,0.34,0.75,1.03,0.44,2.02
				l-13.11,41.55c0.93,0.36,1.77,0.77,2.53,1.24c0.18-0.26,0.38-0.52,0.61-0.75c1.04-1.04,2.44-1.62,3.92-1.62h3.46l11.83-37.5
				c1.28-4.06,0.34-8.35-2.54-11.48c-2.87-3.13-7.06-4.46-11.21-3.54l-22.5,4.98l3.69-18.19c0.53-2.6,3.05-4.29,5.65-3.79
				l40.15,7.64c2.63,0.5,5.17-1.22,5.67-3.85c0.06-0.3,0.08-0.6,0.08-0.9C187.83,11.98,186.22,9.94,183.89,9.5z M18.93,57.96
				c0.28-8.72,6.43-16.5,15.33-18.47c8.9-1.97,17.74,2.49,21.68,10.28L18.93,57.96z M139.42,109.82c-0.57,0-1.13-0.02-1.68-0.07
				L136.4,114h10.16l1.99-6.31c-0.88,0.5-1.86,0.93-2.94,1.27C143.81,109.53,141.72,109.82,139.42,109.82z"/>
		</g>
		<g>
			<path class="st0" d="M115.61,142.9c1.06,0,2.08-0.3,2.95-0.85l-6.8,21.53c-0.8,2.54-4.05,3.26-5.86,1.29l-20.19-22.05
				c0.29,0.06,0.59,0.08,0.9,0.08h8.81c3.82,0,7.05-0.82,9.64-2.44c0.2,0.29,0.42,0.57,0.68,0.82c1.05,1.05,2.44,1.62,3.91,1.62
				H115.61z"/>
		</g>
		<g>
			<path class="st0" d="M129.19,108.37l-2.21,7c-1.89-0.91-4.1-1.37-6.59-1.37h-10.74c-1.47,0-2.86,0.58-3.91,1.63
				c-0.27,0.26-0.5,0.55-0.7,0.86c-0.85-0.56-1.75-1.05-2.74-1.41c-2-0.71-4.32-1.08-6.88-1.08h-8.81c-1.47,0-2.85,0.58-3.92,1.64
				c-1.04,1.05-1.61,2.43-1.61,3.9v17.83c0,0.14,0.01,0.28,0.02,0.42L65.18,120.4l-9.21-10.06L43.05,96.25
				c-1.8-1.97-0.8-5.15,1.8-5.73l38.45-8.51c-0.21,0.15-0.41,0.32-0.6,0.51c-1.05,1.05-1.62,2.44-1.62,3.91v17.83
				c0,1.48,0.58,2.87,1.62,3.91c1.05,1.05,2.44,1.63,3.91,1.63h5.94c1.47,0,2.86-0.58,3.9-1.62c1.06-1.05,1.64-2.44,1.64-3.92v-0.53
				c1.63-0.07,3.08-0.3,4.37-0.68v1.21c0,1.48,0.58,2.87,1.62,3.91c1.05,1.05,2.44,1.63,3.92,1.63h17.49
				C126.86,109.8,128.18,109.29,129.19,108.37z"/>
		</g>
		<g>
			<path class="st0" d="M139.78,74.83l-1.93,6.11c-3.06,0.22-5.64,1.04-7.75,2.43c-0.2-0.3-0.44-0.59-0.7-0.86
				c-1.05-1.04-2.44-1.61-3.91-1.61H108c-1.47,0-2.85,0.57-3.9,1.61c-2.03-1.07-4.43-1.61-7.17-1.61h-8.62l20.64-4.57l5.27-1.17
				l10.35-2.29l5.3-1.17l0.71-0.16l5.15-1.14C138.33,69.82,140.58,72.28,139.78,74.83z"/>
		</g>
	</g>
	<path class="st2" d="M81.94,107.22"/>
	<g>
		<path class="st1" d="M86.61,85.69h10.32c2.61,0,4.68,0.63,6.21,1.9c1.53,1.27,2.29,2.9,2.29,4.88c0,1.99-0.64,3.56-1.93,4.73
			c-1.29,1.17-3.48,1.75-6.57,1.75h-3.64v5.3c0,0.2-0.07,0.38-0.22,0.52c-0.15,0.15-0.32,0.22-0.52,0.22h-5.93
			c-0.2,0-0.38-0.07-0.52-0.22c-0.15-0.15-0.22-0.32-0.22-0.52V86.44c0-0.2,0.07-0.38,0.22-0.52
			C86.23,85.77,86.41,85.69,86.61,85.69z M93.32,90.83v3.03h3.5c0.42,0,0.77-0.13,1.03-0.39c0.27-0.26,0.4-0.62,0.4-1.08
			c0-0.46-0.13-0.84-0.39-1.13c-0.26-0.29-0.61-0.44-1.05-0.44H93.32z"/>
		<path class="st1" d="M125.49,91.35h-4.99v8h4.99c0.2,0,0.38,0.07,0.52,0.22c0.15,0.15,0.22,0.32,0.22,0.52v4.17
			c0,0.2-0.07,0.38-0.22,0.52c-0.15,0.15-0.32,0.22-0.52,0.22h-17.49c-0.2,0-0.38-0.07-0.52-0.22c-0.15-0.15-0.22-0.32-0.22-0.52
			v-4.17c0-0.2,0.07-0.38,0.22-0.52s0.32-0.22,0.52-0.22h5.05v-8h-5.05c-0.2,0-0.38-0.07-0.52-0.22c-0.15-0.15-0.22-0.32-0.22-0.52
			v-4.17c0-0.2,0.07-0.38,0.22-0.52c0.15-0.15,0.32-0.22,0.52-0.22h17.49c0.2,0,0.38,0.07,0.52,0.22c0.15,0.15,0.22,0.32,0.22,0.52
			v4.17c0,0.2-0.07,0.38-0.22,0.52C125.86,91.28,125.69,91.35,125.49,91.35z"/>
		<path class="st1" d="M136.82,93.26v4.17c0,0.71,0.25,1.26,0.76,1.64c0.51,0.38,1.17,0.57,1.99,0.57c0.82,0,1.41-0.12,1.78-0.37
			c0.37-0.24,0.68-0.6,0.92-1.07c0.25-0.47,0.57-0.7,0.98-0.7h5.96c0.17,0,0.31,0.06,0.43,0.18c0.12,0.12,0.18,0.26,0.18,0.42
			c0,1.68-0.81,3.22-2.43,4.61c-0.81,0.69-1.89,1.24-3.23,1.67c-1.34,0.43-2.92,0.64-4.75,0.64c-1.82,0-3.48-0.27-4.98-0.82
			c-1.5-0.55-2.72-1.44-3.66-2.69c-0.94-1.25-1.41-2.77-1.41-4.59v-3.17c0-1.81,0.47-3.34,1.41-4.6c1.77-2.33,4.72-3.5,8.86-3.5
			c1.67,0,3.18,0.21,4.53,0.64c1.34,0.43,2.42,0.98,3.23,1.67c1.62,1.39,2.43,2.93,2.43,4.61c0,0.16-0.06,0.3-0.18,0.42
			c-0.12,0.12-0.26,0.18-0.43,0.18h-5.96c-0.4,0-0.73-0.23-0.98-0.7c-0.25-0.47-0.56-0.83-0.92-1.07c-0.37-0.24-0.96-0.37-1.78-0.37
			c-0.82,0-1.48,0.19-1.99,0.57C137.08,92,136.82,92.55,136.82,93.26z"/>
		<path class="st1" d="M173.38,104.04c0.07,0.11,0.11,0.24,0.11,0.39c0,0.15-0.06,0.28-0.18,0.4c-0.12,0.12-0.26,0.18-0.43,0.18
			h-7.12c-0.42,0-0.75-0.15-0.99-0.44l-4.8-5.93v5.63c0,0.2-0.07,0.38-0.22,0.52c-0.15,0.15-0.32,0.22-0.52,0.22h-5.68
			c-0.2,0-0.38-0.07-0.52-0.22c-0.15-0.15-0.22-0.32-0.22-0.52V86.44c0-0.2,0.07-0.38,0.22-0.52c0.15-0.15,0.32-0.22,0.52-0.22h5.68
			c0.2,0,0.38,0.07,0.52,0.22c0.15,0.15,0.22,0.32,0.22,0.52v5.19l4.36-5.46c0.28-0.31,0.62-0.47,1.02-0.47H172
			c0.17,0,0.31,0.06,0.43,0.18c0.12,0.12,0.18,0.26,0.18,0.41c0,0.16-0.05,0.29-0.14,0.4l-6.54,7.97L173.38,104.04z"/>
		<g>
			<g>
				<path class="st0" d="M186.29,94h-5.1c-0.17,0-0.31-0.06-0.43-0.18c-0.12-0.12-0.18-0.24-0.18-0.36c0-0.12,0.01-0.21,0.03-0.26
					l2.62-6.65c0.22-0.59,0.64-0.88,1.27-0.88h3.53c0.17,0,0.31,0.06,0.43,0.18c0.12,0.12,0.18,0.26,0.18,0.43v0.06l-1.02,6.59
					c-0.04,0.28-0.18,0.52-0.43,0.74C186.94,93.89,186.64,94,186.29,94z"/>
			</g>
		</g>
		<path class="st1" d="M205.16,99.63h11.01c0.2,0,0.38,0.07,0.52,0.22c0.15,0.15,0.22,0.32,0.22,0.52v3.89
			c0,0.2-0.07,0.38-0.22,0.52c-0.15,0.15-0.32,0.22-0.52,0.22h-17.44c-0.2,0-0.38-0.07-0.52-0.22c-0.15-0.15-0.22-0.32-0.22-0.52
			V86.44c0-0.2,0.07-0.38,0.22-0.52c0.15-0.15,0.32-0.22,0.52-0.22h17.16c0.2,0,0.38,0.07,0.52,0.22c0.15,0.15,0.22,0.32,0.22,0.52
			v3.89c0,0.2-0.07,0.38-0.22,0.52c-0.15,0.15-0.32,0.22-0.52,0.22h-10.73v1.74h9.22c0.2,0,0.38,0.07,0.52,0.22
			c0.15,0.15,0.22,0.32,0.22,0.52v3.59c0,0.2-0.07,0.38-0.22,0.52c-0.15,0.15-0.32,0.22-0.52,0.22h-9.22V99.63z"/>
		<path class="st1" d="M234.66,85.69h5.05c0.2,0,0.38,0.07,0.52,0.22c0.15,0.15,0.22,0.32,0.22,0.52v17.82
			c0,0.2-0.07,0.38-0.22,0.52c-0.15,0.15-0.32,0.22-0.52,0.22h-4.99c-0.2,0-0.38-0.07-0.52-0.22c-0.15-0.15-0.22-0.32-0.22-0.52
			v-8.55l-2.01,3.97c-0.11,0.22-0.28,0.39-0.5,0.51c-0.22,0.12-0.44,0.18-0.66,0.18h-1.88c-0.31,0-0.57-0.08-0.77-0.25
			c-0.2-0.17-0.33-0.31-0.39-0.44l-2.01-3.97v8.55c0,0.2-0.07,0.38-0.22,0.52c-0.15,0.15-0.32,0.22-0.52,0.22h-4.99
			c-0.2,0-0.38-0.07-0.52-0.22c-0.15-0.15-0.22-0.32-0.22-0.52V86.44c0-0.2,0.07-0.38,0.22-0.52c0.15-0.15,0.32-0.22,0.52-0.22h5.05
			c0.51,0,0.91,0.25,1.19,0.74l3.61,6.62l3.61-6.62C233.75,85.94,234.14,85.69,234.66,85.69z"/>
	</g>
	<g>
		<path class="st1" d="M86.61,118.8h8.8c2.02,0,3.78,0.27,5.27,0.8c1.49,0.53,2.69,1.43,3.61,2.7c0.92,1.27,1.38,2.85,1.38,4.75
			v2.81c0,2.94-0.99,5.09-2.98,6.43c-1.82,1.21-4.25,1.82-7.28,1.82h-8.8c-0.2,0-0.38-0.07-0.52-0.22
			c-0.15-0.15-0.22-0.32-0.22-0.52v-17.82c0-0.2,0.07-0.38,0.22-0.52C86.23,118.88,86.41,118.8,86.61,118.8z M93.04,124.18v8.55
			h2.51c0.86,0,1.55-0.21,2.06-0.62c0.51-0.41,0.76-1,0.76-1.75v-3.81c0-0.75-0.25-1.34-0.76-1.75c-0.51-0.41-1.19-0.62-2.06-0.62
			H93.04z"/>
		<path class="st1" d="M129.07,137.26c0.04,0.07,0.06,0.17,0.06,0.3s-0.06,0.25-0.18,0.37c-0.12,0.12-0.26,0.18-0.43,0.18h-6.26
			c-0.55,0-0.94-0.23-1.16-0.69l-2.43-5.46h-2.32v5.41c0,0.2-0.07,0.38-0.22,0.52c-0.15,0.15-0.32,0.22-0.52,0.22h-5.96
			c-0.2,0-0.38-0.07-0.52-0.22c-0.15-0.15-0.22-0.32-0.22-0.52v-17.82c0-0.2,0.07-0.38,0.22-0.52c0.15-0.15,0.32-0.22,0.52-0.22
			h10.73c2.52,0,4.51,0.6,5.99,1.79c1.47,1.2,2.21,2.82,2.21,4.88c0,2.5-0.97,4.31-2.9,5.44L129.07,137.26z M116.35,123.93v2.92
			h3.45c0.4,0,0.72-0.13,0.94-0.4c0.22-0.27,0.33-0.6,0.33-1.01c0-0.4-0.11-0.76-0.32-1.06c-0.21-0.3-0.53-0.46-0.95-0.46H116.35z"
			/>
		<path class="st1" d="M149.49,124.46h-4.99v8h4.99c0.2,0,0.38,0.07,0.52,0.22s0.22,0.32,0.22,0.52v4.17c0,0.2-0.07,0.38-0.22,0.52
			c-0.15,0.15-0.32,0.22-0.52,0.22H132c-0.2,0-0.38-0.07-0.52-0.22c-0.15-0.15-0.22-0.32-0.22-0.52v-4.17c0-0.2,0.07-0.38,0.22-0.52
			s0.32-0.22,0.52-0.22h5.05v-8H132c-0.2,0-0.38-0.07-0.52-0.22c-0.15-0.15-0.22-0.32-0.22-0.52v-4.17c0-0.2,0.07-0.38,0.22-0.52
			c0.15-0.15,0.32-0.22,0.52-0.22h17.49c0.2,0,0.38,0.07,0.52,0.22c0.15,0.15,0.22,0.32,0.22,0.52v4.17c0,0.2-0.07,0.38-0.22,0.52
			C149.86,124.38,149.69,124.46,149.49,124.46z"/>
		<path class="st1" d="M166.87,118.8H172c0.2,0,0.38,0.07,0.52,0.22c0.15,0.15,0.22,0.32,0.22,0.52v17.82c0,0.2-0.07,0.38-0.22,0.52
			c-0.15,0.15-0.32,0.22-0.52,0.22h-4.44c-0.44,0-0.81-0.19-1.1-0.58l-6.01-7.67v7.5c0,0.2-0.07,0.38-0.22,0.52
			c-0.15,0.15-0.32,0.22-0.52,0.22h-5.13c-0.2,0-0.38-0.07-0.52-0.22c-0.15-0.15-0.22-0.32-0.22-0.52v-17.82
			c0-0.2,0.07-0.38,0.22-0.52c0.15-0.15,0.32-0.22,0.52-0.22h4.47c0.44,0,0.8,0.18,1.08,0.55l6.01,8.3v-8.11
			c0-0.2,0.07-0.38,0.22-0.52C166.49,118.88,166.67,118.8,166.87,118.8z"/>
		<path class="st1" d="M197.38,137.15c0.07,0.11,0.11,0.24,0.11,0.39c0,0.15-0.06,0.28-0.18,0.4c-0.12,0.12-0.26,0.18-0.43,0.18
			h-7.12c-0.42,0-0.75-0.15-0.99-0.44l-4.8-5.93v5.63c0,0.2-0.07,0.38-0.22,0.52c-0.15,0.15-0.32,0.22-0.52,0.22h-5.68
			c-0.2,0-0.38-0.07-0.52-0.22c-0.15-0.15-0.22-0.32-0.22-0.52v-17.82c0-0.2,0.07-0.38,0.22-0.52c0.15-0.15,0.32-0.22,0.52-0.22
			h5.68c0.2,0,0.38,0.07,0.52,0.22c0.15,0.15,0.22,0.32,0.22,0.52v5.19l4.36-5.46c0.28-0.31,0.62-0.47,1.02-0.47h6.65
			c0.16,0,0.31,0.06,0.43,0.18c0.12,0.12,0.18,0.26,0.18,0.41c0,0.16-0.05,0.29-0.14,0.4l-6.54,7.97L197.38,137.15z"/>
		<path class="st1" d="M216.57,127.87c1.28,0.92,1.92,2.29,1.92,4.12s-0.93,3.31-2.79,4.45c-1.86,1.14-4.32,1.71-7.39,1.71
			c-3.07,0-5.46-0.56-7.16-1.68c-1.7-1.12-2.55-2.5-2.55-4.14c0-0.4,0.21-0.6,0.63-0.6h5.66c0.39,0,0.7,0.11,0.94,0.34
			c0.51,0.47,1.41,0.7,2.68,0.7c1.75,0,2.62-0.26,2.62-0.77c0-0.32-0.28-0.57-0.83-0.76c-0.55-0.19-1.65-0.37-3.28-0.55
			c-5.21-0.6-7.81-2.53-7.81-5.78c0-1.83,0.84-3.31,2.51-4.44c1.67-1.13,3.91-1.69,6.72-1.69s5.07,0.61,6.8,1.82
			c1.73,1.21,2.59,2.49,2.59,3.84c0,0.18-0.06,0.33-0.18,0.44c-0.12,0.11-0.28,0.16-0.48,0.16h-5.93c-0.33,0-0.62-0.1-0.86-0.31
			c-0.44-0.38-1.1-0.57-1.99-0.57c-1.23,0-1.85,0.25-1.85,0.75c0,0.27,0.24,0.48,0.72,0.63c0.48,0.15,1.43,0.31,2.87,0.47
			C213.15,126.33,215.29,126.96,216.57,127.87z"/>
		<g>
			<g>
				<path class="st0" d="M228.45,118.8h5.6c0.2,0,0.38,0.07,0.52,0.22c0.15,0.15,0.22,0.34,0.22,0.58l-0.03,10.51
					c0,0.18-0.07,0.35-0.22,0.48c-0.15,0.14-0.32,0.21-0.52,0.21h-5.57c-0.22,0-0.4-0.07-0.54-0.21c-0.14-0.14-0.21-0.33-0.21-0.57
					v-10.37c0-0.26,0.07-0.46,0.21-0.62C228.05,118.88,228.23,118.8,228.45,118.8z M228.45,131.96h5.57c0.2,0,0.38,0.07,0.52,0.22
					c0.15,0.15,0.22,0.32,0.22,0.52v4.66c0,0.2-0.07,0.38-0.22,0.52c-0.15,0.15-0.32,0.22-0.52,0.22h-5.57
					c-0.2,0-0.38-0.07-0.52-0.22c-0.15-0.15-0.22-0.32-0.22-0.52v-4.66c0-0.2,0.07-0.38,0.22-0.52
					C228.07,132.04,228.25,131.96,228.45,131.96z"/>
			</g>
		</g>
	</g>
</g>
</svg>
